# xmcd
#
# Track frame offsets:
# 182
# 21065
# 38052
# 60405
# 92287
# 114547
# 146815
# 167617
# 201482
# 219342
# 240032
# 262932
# 278590
# 294670
#
# Disc length: 4294 seconds
#
#
# Revision: 2
# Processed by: cddbd v1.5.1PL2 Copyright (c) Steve Scherf et al.
# Submitted via: FreeRIP 2.945 
#
DISCID=b910c40e
DTITLE=Bob Dylan - Rainy Day Women
DYEAR=1900
DGENRE=Folk/Rock
TTITLE0=Rainy Day Women 12 and 35
TTITLE1=Pleding My Time
TTITLE2=One Of Us Must Know (Soon Or Later)
TTITLE3=Stuck Inside Of Mobile With The Memphis Blues Again
TTITLE4=Absolutely Sweet Marie
TTITLE5=Chimes Of Freedom
TTITLE6=4th Time Around
TTITLE7=It's Alright Mama (I`m Only Bleeding)
TTITLE8=Leopard-Skin Pill-Box Hat
TTITLE9=Motorpsycho Nitemare
TTITLE10=Temporary Like Achilles
TTITLE11=Most Likely You Go Your Way An I`ll Go Mine
TTITLE12=Obviousley 5 Believers
TTITLE13=Bob Dylan`s 115th Dream
EXTD=n.a.
EXTT0=
EXTT1=
EXTT2=
EXTT3=
EXTT4=
EXTT5=
EXTT6=
EXTT7=
EXTT8=
EXTT9=
EXTT10=
EXTT11=
EXTT12=
EXTT13=
PLAYORDER=
